<svg width="196" height="264" viewBox="0 0 196 264" fill="none" xmlns="http://www.w3.org/2000/svg">
<path d="M3.30026 234.648C5.09436 234.648 6.57837 233.178 6.57837 231.324C6.57837 229.492 5.09436 228 3.30026 228C1.48401 228 0 229.492 0 231.324C0 233.178 1.48401 234.648 3.30026 234.648ZM0.531586 263.503H6.04679V238.786H0.531586V263.503Z" fill="#576FC6"/>
<path d="M19.3364 263.503H25.3832L33.955 238.786H28.1519L22.5924 258.008H22.2158L16.612 238.786H10.7203L19.3364 263.503Z" fill="#576FC6"/>
<path d="M47.9977 264C54.5761 264 57.8099 260.133 58.5852 256.945L58.6516 256.741H53.4022L53.3357 256.899C52.8042 258.03 51.0987 259.568 48.1085 259.568C44.3652 259.568 42.0174 256.99 41.951 252.558H58.8731V250.704C58.8731 243.241 54.6204 238.312 47.7319 238.312C40.8435 238.312 36.4358 243.399 36.4358 251.178V251.201C36.4358 259.07 40.7992 264 47.9977 264ZM47.7984 242.721C50.8772 242.721 53.1143 244.734 53.4908 248.781H41.9953C42.4161 244.847 44.7196 242.721 47.7984 242.721Z" fill="#576FC6"/>
<path d="M64.3883 263.503H69.9035V249.098C69.9035 245.389 71.9412 243.038 75.2193 243.038C78.5639 243.038 80.0922 244.982 80.0922 248.827V263.503H85.6074V247.515C85.6074 241.636 82.6615 238.312 77.2571 238.312C73.7575 238.312 71.4318 239.917 70.28 242.563H69.9035V238.786H64.3883V263.503Z" fill="#576FC6"/>
<path d="M100.137 264C103.637 264 106.096 262.394 107.225 259.749H107.602V263.503H113.117V238.786H107.602V253.191C107.602 256.899 105.697 259.251 102.131 259.251C98.8085 259.251 97.413 257.307 97.413 253.485V238.786H91.8978V254.774C91.8978 260.653 94.6887 264 100.137 264Z" fill="#576FC6"/>
<path d="M130.216 264C136.795 264 140.028 260.133 140.804 256.945L140.87 256.741H135.621L135.554 256.899C135.023 258.03 133.317 259.568 130.327 259.568C126.584 259.568 124.236 256.99 124.17 252.558H141.092V250.704C141.092 243.241 136.839 238.312 129.951 238.312C123.062 238.312 118.654 243.399 118.654 251.178V251.201C118.654 259.07 123.018 264 130.216 264ZM130.017 242.721C133.096 242.721 135.333 244.734 135.709 248.781H124.214C124.635 244.847 126.938 242.721 130.017 242.721Z" fill="#576FC6"/>
<path d="M150.704 263.955C152.742 263.955 154.226 262.394 154.226 260.382C154.226 258.369 152.742 256.809 150.704 256.809C148.689 256.809 147.183 258.369 147.183 260.382C147.183 262.394 148.689 263.955 150.704 263.955Z" fill="#576FC6"/>
<path d="M164.371 234.648C166.165 234.648 167.649 233.178 167.649 231.324C167.649 229.492 166.165 228 164.371 228C162.554 228 161.07 229.492 161.07 231.324C161.07 233.178 162.554 234.648 164.371 234.648ZM161.602 263.503H167.117V238.786H161.602V263.503Z" fill="#576FC6"/>
<path d="M184.349 264C191.592 264 196 259.161 196 251.156V251.111C196 243.151 191.57 238.312 184.349 238.312C177.151 238.312 172.699 243.173 172.699 251.111V251.156C172.699 259.161 177.084 264 184.349 264ZM184.349 259.432C180.518 259.432 178.325 256.379 178.325 251.178V251.133C178.325 245.932 180.518 242.857 184.349 242.857C188.159 242.857 190.352 245.932 190.352 251.133V251.178C190.352 256.379 188.181 259.432 184.349 259.432Z" fill="#576FC6"/>
<path d="M23.8853 45.77C11.7982 45.77 1.99975 35.9717 1.99976 23.885C1.99976 11.7983 11.7982 2 23.8853 2C35.9725 2 45.7709 11.7983 45.7709 23.885C45.7709 35.9717 35.9725 45.77 23.8853 45.77Z" fill="#F26A61"/>
<path d="M23.8853 45.77C11.7982 45.77 1.99975 35.9717 1.99976 23.885C1.99976 11.7983 11.7982 2 23.8853 2C35.9725 2 45.7709 11.7983 45.7709 23.885C45.7709 35.9717 35.9725 45.77 23.8853 45.77Z" fill="url(#paint0_linear_106_91)" fill-opacity="0.2"/>
<path d="M23.8853 45.77C11.7982 45.77 1.99975 35.9717 1.99976 23.885C1.99976 11.7983 11.7982 2 23.8853 2C35.9725 2 45.7709 11.7983 45.7709 23.885C45.7709 35.9717 35.9725 45.77 23.8853 45.77Z" stroke="#F26262" stroke-width="4"/>
<path d="M182.879 196C189.61 196 195.066 190.627 195.066 184V168.8C195.066 162.172 189.61 156.8 182.879 156.8H99.5234L69.3218 156.8H43.7903H16.1675C9.43706 156.8 3.98097 162.172 3.98097 168.8L3.98097 184C3.98097 190.627 9.43707 196 16.1675 196L182.879 196Z" fill="#576FC6"/>
<path d="M3.98097 184C3.98097 190.627 9.43707 196 16.1675 196L31.6037 196C38.3342 196 43.7903 190.627 43.7903 184L43.7903 156.8V133.28L43.7903 82.5599C43.7903 75.9325 38.3342 70.5599 31.6038 70.5599L16.1675 70.5599C9.43706 70.5599 3.98096 75.9325 3.98096 82.5599L3.98097 184Z" fill="#576FC6"/>
<path d="M43.7903 156.8H69.3218L55.9768 156.8C49.2464 156.8 43.7903 151.427 43.7903 144.8V156.8Z" fill="#576FC6"/>
<path d="M123.409 12C123.409 5.37259 117.953 3.68907e-06 111.222 2.56896e-06L95.7862 0C89.0557 -1.1201e-06 83.5996 5.37258 83.5996 12L83.5996 113.44C83.5996 120.067 89.0557 125.44 95.7861 125.44H111.222C117.953 125.44 123.409 120.067 123.409 113.44L123.409 12Z" fill="#576FC6"/>
<path d="M195.066 12C195.066 5.37259 189.61 3.68907e-06 182.879 2.56896e-06L167.443 0C160.713 -1.1201e-06 155.256 5.37258 155.256 12L155.256 113.44C155.256 120.067 160.713 125.44 167.443 125.44H182.879C189.61 125.44 195.066 120.067 195.066 113.44L195.066 12Z" fill="#576FC6"/>
<mask id="mask0_106_91" style="mask-type:alpha" maskUnits="userSpaceOnUse" x="0" y="0" width="196" height="196">
<path d="M182.879 196C189.61 196 195.066 190.627 195.066 184V168.8C195.066 162.172 189.61 156.8 182.879 156.8H99.5234L69.3218 156.8H43.7903H16.1675C9.43706 156.8 3.98097 162.172 3.98097 168.8L3.98097 184C3.98097 190.627 9.43707 196 16.1675 196L182.879 196Z" fill="#576FC6"/>
<path d="M3.98097 184C3.98097 190.627 9.43707 196 16.1675 196L31.6037 196C38.3342 196 43.7903 190.627 43.7903 184L43.7903 156.8V133.28L43.7903 82.5599C43.7903 75.9325 38.3342 70.5599 31.6038 70.5599L16.1675 70.5599C9.43706 70.5599 3.98096 75.9325 3.98096 82.5599L3.98097 184Z" fill="#576FC6"/>
<path d="M43.7903 156.8H69.3218L55.9768 156.8C49.2464 156.8 43.7903 151.427 43.7903 144.8V156.8Z" fill="#576FC6"/>
<path d="M123.409 12C123.409 5.37259 117.953 3.68907e-06 111.222 2.56896e-06L95.7862 0C89.0557 -1.1201e-06 83.5996 5.37258 83.5996 12L83.5996 113.44C83.5996 120.067 89.0557 125.44 95.7861 125.44H111.222C117.953 125.44 123.409 120.067 123.409 113.44L123.409 12Z" fill="#576FC6"/>
<path d="M195.066 12C195.066 5.37259 189.61 3.68907e-06 182.879 2.56896e-06L167.443 0C160.713 -1.1201e-06 155.256 5.37258 155.256 12L155.256 113.44C155.256 120.067 160.713 125.44 167.443 125.44H182.879C189.61 125.44 195.066 120.067 195.066 113.44L195.066 12Z" fill="#576FC6"/>
<path d="M182.879 196C189.61 196 195.066 190.627 195.066 184V168.8C195.066 162.172 189.61 156.8 182.879 156.8H69.3218H43.7903H16.1675C9.43706 156.8 3.98097 162.172 3.98097 168.8L3.98097 184C3.98097 190.627 9.43707 196 16.1675 196L182.879 196Z" fill="#576FC6"/>
<path d="M3.98097 184C3.98097 190.627 9.43707 196 16.1675 196L31.6037 196C38.3342 196 43.7903 190.627 43.7903 184L43.7903 156.8L43.7903 82.5599C43.7903 75.9325 38.3342 70.5599 31.6038 70.5599H16.1675C9.43706 70.5599 3.98096 75.9325 3.98096 82.5599L3.98097 184Z" fill="#576FC6"/>
<path d="M43.7903 156.8H69.3218L55.9768 156.8C49.2464 156.8 43.7903 151.427 43.7903 144.8V156.8Z" fill="#576FC6"/>
<path d="M123.409 12C123.409 5.37259 117.953 3.68907e-06 111.222 2.56896e-06L95.7862 0C89.0557 -1.1201e-06 83.5996 5.37258 83.5996 12L83.5996 113.44C83.5996 120.067 89.0557 125.44 95.7861 125.44H111.222C117.953 125.44 123.409 120.067 123.409 113.44L123.409 12Z" fill="#576FC6"/>
<path d="M195.066 12C195.066 5.37259 189.61 3.68907e-06 182.879 2.56896e-06L167.443 0C160.713 -1.1201e-06 155.256 5.37258 155.256 12L155.256 113.44C155.256 120.067 160.712 125.44 167.443 125.44H182.879C189.61 125.44 195.066 120.067 195.066 113.44L195.066 12Z" fill="#576FC6"/>
</mask>
<g mask="url(#mask0_106_91)">
<path fill-rule="evenodd" clip-rule="evenodd" d="M196 0H0V196L160.576 178.259C169.883 177.231 177.231 169.883 178.259 160.576L196 0Z" fill="url(#paint1_linear_106_91)" fill-opacity="0.2"/>
</g>
<defs>
<linearGradient id="paint0_linear_106_91" x1="7.96192" y1="2.65389" x2="23.8849" y2="47.7702" gradientUnits="userSpaceOnUse">
<stop stop-color="white"/>
<stop offset="1" stop-color="#F3281B"/>
</linearGradient>
<linearGradient id="paint1_linear_106_91" x1="208" y1="202.5" x2="-15" y2="-9.00002" gradientUnits="userSpaceOnUse">
<stop stop-color="#F4FAFE"/>
<stop offset="1" stop-color="white" stop-opacity="0"/>
</linearGradient>
</defs>
</svg>
