<svg xmlns="http://www.w3.org/2000/svg" xmlns:xlink="http://www.w3.org/1999/xlink" viewBox="0 0 579.33 349.28"><defs><style>.cls-1,.cls-33{fill:none;}.cls-2{isolation:isolate;}.cls-11,.cls-3,.cls-35{fill:#fff;}.cls-4{fill:#faf6f3;}.cls-5{clip-path:url(#clip-path);}.cls-6{fill:#def5fd;opacity:0.69;}.cls-7{clip-path:url(#clip-path-2);}.cls-8{fill:url(#linear-gradient);}.cls-21,.cls-29,.cls-9{mix-blend-mode:overlay;}.cls-10{fill:url(#Nueva_muestra_de_degradado_2);}.cls-11,.cls-30{opacity:0.5;}.cls-12{fill:#cd3af2;}.cls-13,.cls-34{opacity:0.53;}.cls-13,.cls-14,.cls-20,.cls-24,.cls-27,.cls-28,.cls-30,.cls-32,.cls-34,.cls-35,.cls-36{mix-blend-mode:soft-light;}.cls-14,.cls-20{opacity:0.6;}.cls-15{fill:url(#Degradado_sin_nombre_27);}.cls-16{fill:#dfe3ed;}.cls-17{fill:#c5cce3;}.cls-18{fill:#f7f7f7;}.cls-19{fill:#45cdff;}.cls-20{fill:url(#Degradado_sin_nombre_27-2);}.cls-21{opacity:0.77;}.cls-22{fill:url(#Nueva_muestra_de_degradado_2-2);}.cls-23{fill:#f9745a;}.cls-24{fill:url(#Nueva_muestra_de_degradado_1);}.cls-25{fill:#50199e;}.cls-26{fill:#ff5f91;}.cls-27{fill:url(#Nueva_muestra_de_degradado_1-2);}.cls-28{fill:url(#Nueva_muestra_de_degradado_1-3);}.cls-29{opacity:0.61;fill:url(#Degradado_sin_nombre_23);}.cls-31{fill:#ffd940;}.cls-32{fill:url(#Nueva_muestra_de_degradado_1-4);}.cls-33{stroke:#fff;stroke-linecap:round;stroke-miterlimit:10;stroke-width:1.18px;stroke-dasharray:4.74 7.11;}.cls-35{opacity:0.18;}.cls-36{opacity:0.9;fill:url(#Degradado_sin_nombre_27-3);}.cls-37{fill:#fae0b2;}.cls-38{fill:#31dae7;}.cls-39{fill:#d1eaf2;}.cls-40{fill:#45258f;}.cls-41{fill:#7772d6;}.cls-42{fill:url(#linear-gradient-2);}.cls-43{fill:url(#linear-gradient-3);}.cls-44{fill:url(#linear-gradient-4);}.cls-45{fill:url(#linear-gradient-5);}.cls-46{fill:url(#linear-gradient-6);}.cls-47{fill:#232323;}.cls-48{fill:#353233;}.cls-49{fill:#d61d51;}.cls-50{fill:#ffc9a4;}.cls-51{fill:#161818;}.cls-52{fill:#ffa07f;}.cls-53{fill:#ff7d6f;}.cls-54{fill:#ffeede;}.cls-55{fill:#fc5b68;}.cls-56{fill:#ffbf90;}.cls-57{fill:#cf4a57;}.cls-58{fill:#424242;}.cls-59{fill:#ffa049;}.cls-60{fill:#595959;}.cls-61{fill:#c9124b;}</style><clipPath id="clip-path"><rect class="cls-1" width="579.33" height="349.28"/></clipPath><clipPath id="clip-path-2"><path class="cls-1" d="M89.57-8.14C88.89,1,92.83,20.6,102.11,38.45c3.79,7.27,14.49,27.11,37.63,41.29C167,96.42,194.89,94.55,203.11,93.92,230,91.84,234,81.38,267.78,79.41c13.12-.77,30-.21,40.4,10.91a26,26,0,0,1,3.17,4.07c7.35,11.09,4.19,23.34,18.1,40.41,17.71,21.72,47.78,21,49,37.08.63,8.56-9.52,9.65-13.79,25.16s4.47,19.86.49,33.24c-3.05,10.22-11.79,13.22-23.07,33.44-.77,1.4-1.72,3.17-1,4.42,2.5,4.33,19.6-7.77,42.48-6.72,15.09.69,19.25,6.19,32.07,3.58,8.44-1.72,12.5-5.77,18.44-9.53,30.1-19,56.05,3.15,72.94-14.16,9.26-9.49,8.58-19.26,23.61-34.41A78.4,78.4,0,0,1,539,201c31.61-18.92,338.65,36,438.91-48.57C1018.47,118.22,1035,53,1017,13.77c-19-41.36-73.16-47.19-264.26-86.56-155.61-32-131.41-30.6-164.68-35.23C338.61-142.72,94.11-68.95,89.57-8.14Z"/></clipPath><linearGradient id="linear-gradient" x1="89.5" y1="95.4" x2="956.01" y2="95.4" gradientUnits="userSpaceOnUse"><stop offset="0" stop-color="#1baae2"/><stop offset="0.85" stop-color="#04489b"/></linearGradient><linearGradient id="Nueva_muestra_de_degradado_2" x1="773.51" y1="-1323.25" x2="747.84" y2="-1389.43" gradientTransform="translate(974.97 -1338.82) rotate(180)" gradientUnits="userSpaceOnUse"><stop offset="0" stop-color="#fff"/><stop offset="1" stop-color="#fff" stop-opacity="0"/></linearGradient><linearGradient id="Degradado_sin_nombre_27" x1="2035.9" y1="-877.22" x2="2027.39" y2="-901.89" gradientTransform="matrix(0.92, 0.4, -0.4, 0.92, -2077.21, 47.79)" gradientUnits="userSpaceOnUse"><stop offset="0"/><stop offset="0.98" stop-color="#fff" stop-opacity="0"/></linearGradient><linearGradient id="Degradado_sin_nombre_27-2" x1="1487.91" y1="-627.3" x2="1432.36" y2="-674.15" gradientTransform="matrix(0.76, 0.65, -0.65, 0.76, -943.97, -436.99)" xlink:href="#Degradado_sin_nombre_27"/><linearGradient id="Nueva_muestra_de_degradado_2-2" x1="391.1" y1="-1453.19" x2="589.78" y2="-1333.26" gradientTransform="translate(1225.13 -1099.94) rotate(-169.93)" xlink:href="#Nueva_muestra_de_degradado_2"/><linearGradient id="Nueva_muestra_de_degradado_1" x1="216.04" y1="-33.31" x2="165.86" y2="6.41" gradientTransform="translate(469.29 -19.52) rotate(172.32)" gradientUnits="userSpaceOnUse"><stop offset="0"/><stop offset="1" stop-opacity="0"/></linearGradient><linearGradient id="Nueva_muestra_de_degradado_1-2" x1="-484.44" y1="-1494.51" x2="-480.05" y2="-1523.57" gradientTransform="matrix(0.98, -0.22, -0.22, -0.98, 724.43, -1426.71)" xlink:href="#Nueva_muestra_de_degradado_1"/><linearGradient id="Nueva_muestra_de_degradado_1-3" x1="-495.86" y1="-1495.92" x2="-491.45" y2="-1525.05" gradientTransform="matrix(0.98, -0.22, -0.22, -0.98, 724.43, -1426.71)" xlink:href="#Nueva_muestra_de_degradado_1"/><linearGradient id="Degradado_sin_nombre_23" x1="2109.2" y1="-525.4" x2="2081.17" y2="-640.1" gradientTransform="matrix(-1, -0.04, -0.04, 1, 2521.2, 734.16)" gradientUnits="userSpaceOnUse"><stop offset="0"/><stop offset="0.98" stop-color="#fff"/></linearGradient><linearGradient id="Nueva_muestra_de_degradado_1-4" x1="235.32" y1="-764.86" x2="204.32" y2="-754.71" gradientTransform="matrix(0.97, -0.26, 0.26, 0.97, 486.96, 834.25)" xlink:href="#Nueva_muestra_de_degradado_1"/><linearGradient id="Degradado_sin_nombre_27-3" x1="1961.77" y1="-386.37" x2="1951.72" y2="-410.62" gradientTransform="translate(-972.07 -1370.48) rotate(59.41)" xlink:href="#Degradado_sin_nombre_27"/><linearGradient id="linear-gradient-2" x1="-96.23" y1="351.88" x2="265.67" y2="351.88" gradientUnits="userSpaceOnUse"><stop offset="0" stop-color="#1baae2"/><stop offset="1" stop-color="#04489b"/></linearGradient><linearGradient id="linear-gradient-3" x1="72.66" y1="37.54" x2="112.18" y2="29.05" gradientTransform="matrix(1, 0.04, -0.04, 1, 1.35, -3.72)" gradientUnits="userSpaceOnUse"><stop offset="0" stop-color="#1aa7e0"/><stop offset="0.18" stop-color="#189dd9"/><stop offset="0.48" stop-color="#1283c6"/><stop offset="0.87" stop-color="#0858a7"/><stop offset="1" stop-color="#04489b"/></linearGradient><linearGradient id="linear-gradient-4" x1="362.53" y1="172.69" x2="378.54" y2="169.25" gradientTransform="matrix(1, 0, 0, 1, 0, 0)" xlink:href="#linear-gradient-3"/><linearGradient id="linear-gradient-5" x1="365.07" y1="183.68" x2="369.86" y2="182.65" gradientTransform="matrix(1, 0, 0, 1, 0, 0)" xlink:href="#linear-gradient-3"/><linearGradient id="linear-gradient-6" x1="65.87" y1="332.16" x2="104.87" y2="323.78" gradientTransform="matrix(1.19, 0.01, -0.01, 1.52, -12.93, -174.73)" xlink:href="#linear-gradient-3"/></defs><g class="cls-2"><g id="illustration"><path class="cls-3" d="M573.48,95.67a.59.59,0,0,1,.6-.58.59.59,0,0,1,0,1.18A.59.59,0,0,1,573.48,95.67Z"/><path class="cls-4" d="M580,216.58a4.06,4.06,0,0,0,5.08-.34c2.61-2.22,1.22,1.17,1.22,1.17s-1.44,4-3.39,4.52-4.48-1.86-4.51-4.08S579.77,216.3,580,216.58Z"/><g class="cls-5"><rect class="cls-6" x="-2.79" y="-0.33" width="583.03" height="349.93"/><g class="cls-7"><path class="cls-8" d="M89.57-8.14C89-.48,92.22,19.43,102.11,38.45c3.79,7.27,14.49,27.11,37.63,41.29C167,96.42,194.89,94.55,203.11,93.92,230,91.84,234,81.38,267.78,79.41c13.12-.77,30-.21,40.4,10.91.18.2.41.43.7.76a27.55,27.55,0,0,1,2.47,3.31c1.91,3.09-10.7,30.13-5.3,37.33,4.47,5.95,21.3-1.48,23.4,3.08,1.44,3.13-6.62,6.36-7.57,13.77-1.22,9.59,11,14,16.63,28.31,3.09,7.88,1.54,14.58,1.76,23.52,1.29,53.82-15.53,65.36-4.85,80.94,17.32,25.27,75.07,14.55,99.83,6.89,15.93-4.92,59.7-18.46,71.72-46.92a114.74,114.74,0,0,1,23.61-34.41A30.78,30.78,0,0,1,539,201c21.62-10.65,33.52-3.9,45.93-11.11,17.46-10.16,4.52-33.84,25.42-56.05,12-12.79,19.35-8.13,32-22.15,16.62-18.46,9-32.12,19.92-41.72,21.35-18.79,60.34,24.72,114.22,14.29,35.63-6.89,32.24-28.84,70.47-36,48.11-9,78.54,20.19,98,3.83C959.66,39.77,956.47,11.51,953.42,0,930.89-85.24,693.32-95.29,608-101.89,325-123.8,93.64-61,89.57-8.14Z"/></g><g class="cls-9"><path class="cls-10" d="M276.5,58.76c-1.61-6.94-7.48-13.34-15.78-17.21a49.66,49.66,0,0,0-28.57-3.46c-6.27,1.11-12,3.37-17.7,5.51-14,5.24-30.26,10-45.25,6.35-13.87-3.34-22.88-13.27-25.86-23.42-1.68-5.74-1.74-11.84,1.21-17.31S153.78-1,161.76-2.55c2.53-.49,5.41-.63,7.62.37,3,1.38,3.7,4.32,3.49,6.87-.42,5.08-3,10.27-.93,15.13a16.66,16.66,0,0,0,5.28,6.08c8.09,6.25,20.66,9.66,32.46,8.18s21.58-7.42,31-12.77S261,10.72,273.11,11a23,23,0,0,1,9.63,2.07A15.68,15.68,0,0,1,288.25,18c6.27,8.63,5.54,19.6-1.83,27.78"/></g><path class="cls-3" d="M338.37,62.2a1.83,1.83,0,1,1,1.82,1.85A1.84,1.84,0,0,1,338.37,62.2Z"/><path class="cls-3" d="M347.33,6.51a.7.7,0,1,0-1.16-.8.7.7,0,1,0,1.16.8Z"/><path class="cls-3" d="M290.09,49a.56.56,0,0,0-.92-.64.56.56,0,1,0,.92.64Z"/><ellipse class="cls-3" cx="360.36" cy="42.11" rx="0.4" ry="0.4" transform="translate(120.35 314.19) rotate(-55.25)"/><path class="cls-3" d="M526.42,26.37a1.37,1.37,0,1,0-1.92.37A1.38,1.38,0,0,0,526.42,26.37Z"/><polygon class="cls-3" points="409.03 173.37 409.73 176.65 410.42 173.37 412.87 172.59 410.42 171.8 409.73 168.52 409.03 171.8 406.58 172.59 409.03 173.37"/><path class="cls-3" d="M401,215.55a1.22,1.22,0,1,1,1.21,1.23A1.23,1.23,0,0,1,401,215.55Z"/><path class="cls-3" d="M404.46,157.72a.7.7,0,0,1,.71-.7.71.71,0,0,1,.7.72.72.72,0,0,1-.72.71A.71.71,0,0,1,404.46,157.72Z"/><path class="cls-3" d="M526.7,134.11a.71.71,0,0,1,.72-.7.7.7,0,0,1,.69.72.71.71,0,1,1-1.41,0Z"/><path class="cls-11" d="M431.5,96.94a.71.71,0,0,1,.71-.72.72.72,0,1,1-.71.72Z"/><path class="cls-3" d="M434.14,72.8a1.23,1.23,0,1,1,1.23,1.25A1.24,1.24,0,0,1,434.14,72.8Z"/><path class="cls-3" d="M491.6,98.83a.71.71,0,1,1,.71.71A.71.71,0,0,1,491.6,98.83Z"/><path class="cls-3" d="M454.49,154.43a1.37,1.37,0,1,1,1.37,1.39A1.39,1.39,0,0,1,454.49,154.43Z"/><polygon class="cls-3" points="476.03 135.18 477.58 142.52 479.14 135.18 484.61 133.42 479.14 131.67 477.58 124.33 476.03 131.67 470.56 133.42 476.03 135.18"/><polygon class="cls-11" points="445.99 114.3 446.54 116.86 447.08 114.3 448.99 113.69 447.08 113.08 446.54 110.52 445.99 113.08 444.08 113.69 445.99 114.3"/><polygon class="cls-3" points="580.56 90.87 581.53 95.48 582.5 90.87 585.94 89.77 582.5 88.67 581.53 84.07 580.56 88.67 577.13 89.77 580.56 90.87"/><polygon class="cls-3" points="516.78 159.96 517.39 162.84 518 159.96 520.14 159.28 518 158.59 517.39 155.71 516.78 158.59 514.63 159.28 516.78 159.96"/><ellipse class="cls-3" cx="502.14" cy="57.25" rx="0.7" ry="0.71"/><path class="cls-3" d="M125.78,83.61a.6.6,0,0,1,.59-.59.6.6,0,0,1,0,1.19A.6.6,0,0,1,125.78,83.61Z"/><path class="cls-3" d="M226.77,64.1a.58.58,0,1,1,1.16,0,.58.58,0,1,1-1.16,0Z"/><path class="cls-11" d="M148.12,33.39a.59.59,0,0,1,.59-.59.58.58,0,0,1,.58.59.59.59,0,0,1-.58.59A.6.6,0,0,1,148.12,33.39Z"/><path class="cls-3" d="M150.3,13.45a1,1,0,1,1,1,1A1,1,0,0,1,150.3,13.45Z"/><path class="cls-3" d="M197.77,35a.59.59,0,1,1,.58.59A.58.58,0,0,1,197.77,35Z"/><path class="cls-3" d="M167.11,80.88A1.14,1.14,0,1,1,168.25,82,1.15,1.15,0,0,1,167.11,80.88Z"/><polygon class="cls-3" points="184.91 64.98 186.19 71.04 187.48 64.98 192 63.53 187.48 62.08 186.19 56.02 184.91 62.08 180.39 63.53 184.91 64.98"/><polygon class="cls-11" points="166.52 39.84 167.32 43.65 168.13 39.84 170.96 38.94 168.13 38.03 167.32 34.23 166.52 38.03 163.68 38.94 166.52 39.84"/><polygon class="cls-3" points="271.26 28.38 272.07 32.18 272.87 28.38 275.71 27.47 272.87 26.56 272.07 22.76 271.26 26.56 268.43 27.47 271.26 28.38"/><polygon class="cls-3" points="218.57 85.46 219.08 87.83 219.58 85.46 221.35 84.89 219.58 84.32 219.08 81.94 218.57 84.32 216.8 84.89 218.57 85.46"/><ellipse class="cls-3" cx="206.48" cy="0.6" rx="0.58" ry="0.59"/><path class="cls-3" d="M356.59,19.66a.4.4,0,0,0-.09-.56.41.41,0,0,0-.46.67A.4.4,0,0,0,356.59,19.66Z"/><path class="cls-3" d="M417.64,229.08a.4.4,0,0,1,.39-.41.41.41,0,0,1,0,.81A.39.39,0,0,1,417.64,229.08Z"/><path class="cls-12" d="M123.73,34.81a16.37,16.37,0,0,1-2.49,4.6c-1.49,1.68-1.57,4.23,1.64,7.47s11.79,11.19,13.23,12.61,3.94,3.3,6.44,2.85,4.55.72,5.62,1.2,4.72-2.06,5.65-2.43,2.5-2.26,4.09-4.15,3.18-1.44,3.35-4.22,2.72-2.16.16-9.26-7-5.7-11.29-9.41-6.08-1.91-8.93-2.4-6,.2-8.59.34S125.59,32.27,123.73,34.81Z"/><g class="cls-13"><path d="M159.29,53.69a12.94,12.94,0,0,0-5.68.51l-9.86,2.4c-.07-2.38-.18-4.87-1.34-6.93-1.43-2.52-4.16-3.93-6.73-5.21l-5.3-2.61,2.93,3.35a2.17,2.17,0,0,1,.52.81,2.43,2.43,0,0,1,0,1L133,51.6c-2.76-1-2.79-4.8-3.66-7.63a2.84,2.84,0,0,1-.21-1.34c.27-1.32,2.12-1.2,3.43-1a11.45,11.45,0,0,0,8.7-2.18c-1.75.81-3.73-.35-5.65-.51-3.21-.27-6,2.3-9.23,2.61a12.65,12.65,0,0,1,3.28-4,8.85,8.85,0,0,0-3.57,2.4c0-2.71,2.83-4.53,5.46-5s5.45-.22,7.87-1.37l-8.55.34a10.82,10.82,0,0,0-5.2,1.1c-2,1.2-3,3.51-3.86,5.68a3.72,3.72,0,0,0-.4,2.18,3.62,3.62,0,0,0,.92,1.47q4.91,5.59,10.23,10.78A25.62,25.62,0,0,0,140,60.63c1.55.68,3.73-.45,5.23-.23,2.13.3,3.58,1.69,5.81.75,3.2-1.34,5.11-4.73,8.85-7.25"/></g><g class="cls-14"><path class="cls-15" d="M159.29,53.69a12.94,12.94,0,0,0-5.68.51l-9.86,2.4c-.07-2.38-.18-4.87-1.34-6.93-1.43-2.52-4.16-3.93-6.73-5.21l-5.3-2.61,2.93,3.35a2.17,2.17,0,0,1,.52.81,2.43,2.43,0,0,1,0,1L133,51.6c-2.76-1-2.79-4.8-3.66-7.63a2.84,2.84,0,0,1-.21-1.34c.27-1.32,2.12-1.2,3.43-1a11.45,11.45,0,0,0,8.7-2.18c-1.75.81-3.73-.35-5.65-.51-3.21-.27-6,2.3-9.23,2.61a12.65,12.65,0,0,1,3.28-4,8.85,8.85,0,0,0-3.57,2.4c0-2.71,2.83-4.53,5.46-5s5.45-.22,7.87-1.37l-8.55.34a10.82,10.82,0,0,0-5.2,1.1c-2,1.2-3,3.51-3.86,5.68a3.72,3.72,0,0,0-.4,2.18,3.62,3.62,0,0,0,.92,1.47q4.91,5.59,10.23,10.78A25.62,25.62,0,0,0,140,60.63c1.55.68,3.73-.45,5.23-.23,2.13.3,3.58,1.69,5.81.75,3.2-1.34,5.11-4.73,8.85-7.25"/></g><path class="cls-3" d="M156.89,45.13a3.87,3.87,0,0,0-3.16,3.08,37.33,37.33,0,0,1-7,.95l4-1.3a3.61,3.61,0,0,0,2.07-1.27c.19-.3.29-.66.5-1a2.26,2.26,0,0,1,2-.66,9.87,9.87,0,0,0,2.23.17"/><path class="cls-3" d="M152.36,37.34c.29.95.58,1.9.86,2.84a1,1,0,0,0,.25.47,1,1,0,0,0,.68.17,5,5,0,0,1,4.11,2.6c.9,1.67.8,3.71,1.49,5.48.75-1.21,1.51-2.79.7-4a9.61,9.61,0,0,0-.74-.82c-1.05-1.22-1.05-3.31-2.47-4a5.84,5.84,0,0,0-1.66-.4,5.23,5.23,0,0,1-3.26-2.16"/><polygon class="cls-16" points="549.35 98.66 569 76.39 552.4 106.13 549.35 98.66"/><polygon class="cls-17" points="552.4 106.13 569 76.39 554.25 99.96 552.4 106.13"/><polygon class="cls-18" points="540.48 98.24 569 76.39 549.35 98.66 540.48 98.24"/><polygon class="cls-18" points="565.55 107.19 554.24 100.17 569 76.39 565.55 107.19"/><path class="cls-19" d="M608,17.14S590.13,8.61,583.88,3.93,577.19-1.15,569.3.72s-16.73,2.07-17.6,7.7-3.29,13.08,3.07,19.47,17.11,15,19.42,17.84,7.23.75,10.57,6.07,6.42,7.24,12.69,6.35S607.92,57,611,52.45s11.57-15.4,10.43-19.59S622,23,608,17.14Z"/><path class="cls-20" d="M608,17.14S590.13,8.61,583.88,3.93,577.19-1.15,569.3.72s-16.73,2.07-17.6,7.7-3.29,13.08,3.07,19.47,17.11,15,19.42,17.84,7.23.75,10.57,6.07,6.42,7.24,12.69,6.35S607.92,57,611,52.45s11.57-15.4,10.43-19.59S622,23,608,17.14Z"/><g class="cls-14"><path d="M576.07,46.08c.16-2.52.1-4.19,1.55-6.25a1.59,1.59,0,0,1,1-.8c.67-.06,1.13.64,1.45,1.24A28.22,28.22,0,0,0,604,55a15.31,15.31,0,0,1-17.66-2.85c-1.5-1.54-2.67-3.4-4.31-4.78s-4-2.23-5.91-1.29"/></g><g class="cls-14"><path d="M555.74,10c-1,4-2.07,8.46-.31,12.22a17.18,17.18,0,0,0,3.86,4.84q4.53,4.41,9.26,8.58a4.33,4.33,0,0,0,2.16,1.25c1.18.17,2.25-.63,3.32-1.19,5.84-3,13.94.93,19.06-3.23-7.57-.54-15.5-2.55-20.77-8.08-2.39-2.52-4.1-5.62-6.39-8.24a47,47,0,0,0-7-6.18c-.88-.68-2.12-1.36-3-.66-1.23,1,.19,3.24-.68,4.59"/></g><g class="cls-14"><path d="M567.49,9.9c7.24,1,11.18,10,18.3,11.64,4.06,1,8.92-.5,12.08,2.25-3-2.5-6.09-5.06-9.78-6.31-2.33-.79-4.84-1-7.05-2.13s-3.95-3-6-4.29-4.88-2.07-7-.73"/></g><g class="cls-21"><path class="cls-22" d="M565.69,187.73A65.45,65.45,0,0,0,534,148.35a63.93,63.93,0,0,0-50-4c-8.4,2.86-16.52,7.83-21,15.61-4,7.11-4.57,15.76-3.73,23.93a80.82,80.82,0,0,0,22.37,47.9c3,3.1,6.6,7.54,4.34,11.27-1.37,2.25-4.26,2.89-6.84,3.22a96.69,96.69,0,0,1-44.05-4.67c-5-1.74-10.41-4.6-11.57-9.81-.72-3.25.46-6.58,1.58-9.72,3.21-9.05,6-18.39,6.43-28s-1.74-19.62-7.58-27.19-15.75-12.27-25-10.3c-5.33,1.13-10.17,4.27-15.58,4.76-4.13.37-8.21-.84-12.16-2.11-1.81-.58-3.82-1.37-4.55-3.15a6.57,6.57,0,0,1,0-3.85A73.15,73.15,0,0,1,378,126.35a11.38,11.38,0,0,1,3.29-3.44c3.54-2.07,8-.06,11.44,2.11,8.68,5.42,16.69,12,25.81,16.57s19.86,7.14,29.53,3.9c8.59-2.87,15.14-9.82,22.69-14.88,8.55-5.72,29.17-19,51.28-16.64s44.19,15,51.75,24.74c4.84,6.26,6.32,14.74,5.17,22.61s-4.72,15.2-9.08,21.81"/></g><path class="cls-23" d="M262.69-10.17l35.11,47L339.49,8.89ZM287.16,7.41c.12.17,29.89,6.23,29.89,6.23l-18.35,11Z"/><path class="cls-24" d="M262.69-10.17l35.11,47L339.49,8.89ZM287.16,7.41c.12.17,29.89,6.23,29.89,6.23l-18.35,11Z"/><path class="cls-3" d="M411.56,3.9a.7.7,0,0,1,.7-.71.72.72,0,1,1-.7.71Z"/><polygon class="cls-3" points="380.38 -1.46 380.97 1.38 381.57 -1.46 383.69 -2.13 381.57 -2.81 380.97 -5.64 380.38 -2.81 378.26 -2.13 380.38 -1.46"/><polygon class="cls-11" points="553.77 175.74 554.74 180.34 555.71 175.74 559.15 174.64 555.71 173.54 554.74 168.94 553.77 173.54 550.33 174.64 553.77 175.74"/><path class="cls-3" d="M442,19.75a2,2,0,0,1,1.11-2.56,2,2,0,0,1,2.52,1.13,2,2,0,0,1-1.11,2.56A2,2,0,0,1,442,19.75Z"/><path class="cls-3" d="M566.19,142.38a.73.73,0,1,1-1,.35A.74.74,0,0,1,566.19,142.38Z"/><polygon class="cls-25" points="561.83 140.2 561.39 135.23 563.66 140.23 561.83 140.2"/><path class="cls-26" d="M584.17,172.14,568.38,135s23.32,2.91,17.54,39.86Z"/><path class="cls-27" d="M572.65,138.87l10.93,24.54S582,142.65,572.65,138.87Z"/><path class="cls-26" d="M582.89,172.81l-20.34-34.9S550.63,158.09,584,175.83Z"/><path class="cls-28" d="M563.11,143.59l13.06,23.49S560.56,153.19,563.11,143.59Z"/><polygon class="cls-3" points="434.25 95.83 434.75 103.32 437.32 96.27 443 95.31 437.82 92.8 437.33 85.31 434.75 92.36 429.08 93.32 434.25 95.83"/><polygon class="cls-19" points="392.54 39.41 442.51 43.75 479.96 32.51 511.8 89.61 476.01 97.51 476.94 98.8 466.57 101.4 455.16 102.32 455.76 100.55 417.5 103.52 392.54 39.41"/><polygon class="cls-29" points="392.54 39.41 442.51 43.75 479.96 32.51 511.8 89.61 476.01 97.51 476.94 98.8 466.57 101.4 455.16 102.32 455.76 100.55 417.5 103.52 392.54 39.41"/><polyline class="cls-18" points="465.33 94.07 505.46 84.14 475.97 32.6 443.41 41.87"/><polyline class="cls-16" points="465.33 94.07 422.48 93.42 398.4 37.63 443.41 41.87"/><polygon class="cls-17" points="475.97 32.6 505.57 84.33 466.17 95.12 422.67 98.02 398.4 37.63 423.46 92.05 465.36 93.19 502.15 78.88 475.97 32.6"/><polygon class="cls-30" points="398.62 37.91 422.48 93.42 460.82 94.45 422.75 94.4 422.86 94.77 443.46 95.54 423.19 95.99 423.46 96.63 436.82 97.11 422.67 98.02 398.62 37.91"/><polygon class="cls-30" points="475.97 32.6 503.26 79.95 467.88 93.11 503.54 80.92 503.64 81.3 484.71 88.48 503.98 82.52 504.07 83.19 491.65 88.05 505.55 84.24 475.97 32.6"/><path class="cls-3" d="M418.19,57.19a.39.39,0,1,1,.33.45A.4.4,0,0,1,418.19,57.19Z"/><path class="cls-3" d="M499.74,30.53a.4.4,0,1,0-.52.23A.4.4,0,0,0,499.74,30.53Z"/><polygon class="cls-31" points="482.06 53.61 522.29 25.1 526.97 30.57 486.78 59.67 481.35 59.37 482.06 53.61"/><polygon class="cls-32" points="482.06 53.61 522.29 25.1 526.97 30.57 486.78 59.67 481.35 59.37 482.06 53.61"/><path class="cls-3" d="M474.61,63.68l7.39-10s1.09-.67.51,1.31,2.3.07,2.69.57-1.35,2-.82,2.57,2.78-1,3.11-.38-1.11,1.42-.71,2Z"/><path class="cls-25" d="M477.3,60.06a2.53,2.53,0,0,1,1.77,2.17l-4.66,1.58Z"/><path class="cls-12" d="M519.27,27.27a34,34,0,0,1,4.58,5.55c.25-.12,6-4.19,6-4.19l-5.32-5.15Z"/><ellipse class="cls-31" cx="365.03" cy="113.36" rx="18.88" ry="18.39" transform="translate(30.75 298.71) rotate(-46.26)"/><path class="cls-33" d="M341.26,114.65a23.05,23.05,0,0,0,24.43,22.48,24.56,24.56,0,0,0,23.11-25A23.05,23.05,0,0,0,364.37,89.6,24.55,24.55,0,0,0,341.26,114.65Z"/><ellipse class="cls-34" cx="365.03" cy="113.36" rx="17.79" ry="17.33" transform="translate(30.7 298.62) rotate(-46.24)"/><ellipse class="cls-35" cx="366.7" cy="111.96" rx="14.49" ry="14.11" transform="translate(32.25 299.42) rotate(-46.25)"/><path class="cls-35" d="M378.86,111.84a10,10,0,0,0-7.2-12.44A10.56,10.56,0,0,0,359,106.94a10,10,0,0,0,7.2,12.44A10.56,10.56,0,0,0,378.86,111.84Z"/><ellipse class="cls-36" cx="365.03" cy="113.36" rx="17.79" ry="17.33" transform="translate(30.7 298.62) rotate(-46.24)"/><path class="cls-37" d="M414.2,341.3h63.41a8.06,8.06,0,0,1,7.9,8.2h0a8.06,8.06,0,0,1-7.9,8.2H414.2A16.28,16.28,0,0,0,414.2,341.3Z"/><path class="cls-38" d="M389.14,331.34A1,1,0,0,1,390,330h115.8c9.08,0,16.44,7.08,16.44,15.81h0c0,8.74-7.36,15.82-16.44,15.82H390a1,1,0,0,1-.9-1.39h0A32.12,32.12,0,0,0,389.14,331.34Z"/><path class="cls-39" d="M391.2,332.54H459c4.82,0,8.72,5.92,8.72,13.23h0c0,7.31-3.9,13.24-8.72,13.24H390.84A32.09,32.09,0,0,0,391.2,332.54Z"/><path class="cls-40" d="M347.12,204.62l-8.38-2.2,5.68,75.76,10.06.34-5.07-71.14A3.11,3.11,0,0,0,347.12,204.62Z"/><path class="cls-41" d="M343.67,280.35a3.77,3.77,0,0,0,.58,0,3.37,3.37,0,0,0,2.75-3.7l-5.58-71.24a3.06,3.06,0,0,0-3.28-3,3.37,3.37,0,0,0-2.75,3.7L341,277.35A3.15,3.15,0,0,0,343.67,280.35Z"/><path class="cls-41" d="M420.81,284.14a.81.81,0,0,0,0,.16h0c-.27,2.9-2.51,5.06-5,4.84L345,282.8c-2.51-.22-4.33-2.75-4.06-5.65,0-.12,0-.24,0-.36Z"/><path class="cls-42" d="M-49.36,258.91c8.06,2.93,1.09,20.85,12.82,28.64,13.93,9.25,33.22-9.69,55.38-4.34,24.72,6,19.81,34.13,42.58,50,42.22,29.49,109.39-31.24,164.74-4.39,24.52,11.9,44.49,41.09,38.4,62.3-15.3,53.28-207.32,84.77-307.24,9.19-11.5-8.7-59.78-45.22-52.87-89.36C-90.88,281.14-60.23,254.94-49.36,258.91Z"/><path class="cls-11" d="M218.27,340.28a2.31,2.31,0,1,1,2.3,2.34A2.32,2.32,0,0,1,218.27,340.28Z"/><ellipse class="cls-3" cx="60.22" cy="294.55" rx="0.93" ry="0.94"/><path class="cls-11" d="M75.26,300.2a.7.7,0,0,1,.7-.71.72.72,0,1,1-.7.71Z"/><path class="cls-11" d="M215.17,339.06a.71.71,0,0,1,.71-.71.72.72,0,0,1,0,1.43A.71.71,0,0,1,215.17,339.06Z"/><path class="cls-11" d="M47,339.56a.7.7,0,0,1,.7-.71.72.72,0,1,1-.7.71Z"/><path class="cls-3" d="M241.31,344.5a.71.71,0,0,1,.71-.71.72.72,0,0,1,0,1.43A.71.71,0,0,1,241.31,344.5Z"/><path class="cls-3" d="M89.34,343.79a.71.71,0,0,1,.7-.72.72.72,0,0,1,0,1.43A.7.7,0,0,1,89.34,343.79Z"/><path class="cls-3" d="M174.59,332.3a.88.88,0,1,1,.88.89A.87.87,0,0,1,174.59,332.3Z"/><polygon class="cls-3" points="151.26 339.23 152.05 342.93 152.83 339.23 155.59 338.35 152.83 337.46 152.05 333.76 151.26 337.46 148.5 338.35 151.26 339.23"/><path class="cls-3" d="M9.69,305.9a1.24,1.24,0,1,1,1.23,1.26A1.24,1.24,0,0,1,9.69,305.9Z"/><polygon class="cls-16" points="18.34 332 32.04 316.47 20.47 337.21 18.34 332"/><polygon class="cls-17" points="20.47 337.21 32.04 316.47 21.76 332.9 20.47 337.21"/><polygon class="cls-18" points="12.16 331.71 32.04 316.47 18.34 332 12.16 331.71"/><polygon class="cls-18" points="29.64 337.94 21.75 333.05 32.04 316.47 29.64 337.94"/><path class="cls-43" d="M79,7.49a5.1,5.1,0,0,1,3.44-.24c3.72,1.32,3.08,7.9,5.06,16.26C90.61,36.84,98.91,48.27,100,49.71c3.48,4.72,6.2,7.11,5.31,8.87C104,61,96.74,60.06,92,58.43a30.8,30.8,0,0,1-14.6-11C69.63,36.78,71.52,25,72.22,20.63,72.83,16.89,74,9.36,79,7.49Z"/><path class="cls-44" d="M364.57,162.79c3.68-1,10.8,5.68,9.87,11.57-.61,3.93-4.7,6.85-5.61,6.3s2-4.32.34-7.32-6.45-2-7.49-4.77C360.91,166.56,362.51,163.37,364.57,162.79Z"/><circle class="cls-45" cx="366.79" cy="183.31" r="1.76"/><path class="cls-46" d="M64.46,317.7c4.71-.6,5.71,8.17,11.86,11.57,8,4.43,16.65-4.91,20.5.49a3.85,3.85,0,0,1,.84,2.59c-.45,3.44-8.21,4.2-9.46,4.32,0,0-12.53,1.58-23.32-9.64-4.09-4.26-3.8-6.24-3.68-6.76A3.83,3.83,0,0,1,64.46,317.7Z"/><polygon class="cls-3" points="473.44 208.43 474.13 211.74 474.83 208.43 477.3 207.65 474.83 206.86 474.13 203.55 473.44 206.86 470.97 207.65 473.44 208.43"/><path class="cls-11" d="M456.13,219.67a.71.71,0,0,1,.71-.71.71.71,0,1,1-.71.71Z"/><path class="cls-47" d="M413.08,333.6c.48-1.43-30.41-14.54-31.8-13-2.44,2.65,16.72,52.38,16.72,52.38l-22,6.72s-22.88-57.45-21.92-68,12.42-22.45,37.25-14.81S413.08,333.6,413.08,333.6Z"/><path class="cls-48" d="M356.82,286.53c3.34-1.78,12-1.84,21.58-1.22a218.75,218.75,0,0,1,54.72,10.74L445,300l0-12.15s37.71-6.31,39,3c2,14.07-.48,42.64-13,49-39,19.81-93.72-31.56-93.92-24.84-.26,9-7.87,42.62-9.82,57.32-5.41.1-14.7.09-18.74-.83C347.66,342.72,347.29,291.62,356.82,286.53Z"/><path class="cls-49" d="M455.66,211.08c.14-.58.29-1.17.43-1.76l2.22-6.78-11.7,1.69-3.83,6.24c-.55.95-1,1.71-1.35,2.24-.59,1-.88,1.38-.72,1.73s1,.49,1.43.49c2.74,0,4.11.07,10.1-2.27Z"/><path class="cls-49" d="M439.79,215.62a110.23,110.23,0,0,1,6-9.73c3.05-5.43,10.94-8.17,10.94-8.17s2.63.05,5.66.2a2.41,2.41,0,0,0,.57,1c1.14.86,7.66-.25,11.88,2.62,14.12,12.1,10.22,70.78,9.1,89.32l-43,.4s5.43-39.88-3.31-50.12C431.51,234,435.43,223.66,439.79,215.62Z"/><path class="cls-50" d="M384.92,275.51c2.58-.94,6.42-1.05,6.36-1.39-.26-1.38-11.66,3-10.12,1,.86-1.12,9.39-5.09,11.46-4.43s15.23,4.34,15.23,4.34L444,266.6s9.12-20.72,10-38.51a49.74,49.74,0,0,1,19.21,6.51c-3.16,17-10.84,44.61-19.32,49.78-3.57,2.18-46.19-2.6-46.19-2.6s-9.39-.67-10.93-1.26c-1.16-.45-4.16-2.13-5.79-2.59-3.7-1.05-10.31,1.58-10.33.85C380.61,278.26,382.28,276.46,384.92,275.51Z"/><path class="cls-51" d="M488.69,179.24a56.79,56.79,0,0,1-17.5,10,59,59,0,0,1-50.86-5.45c3.56-2.34,5.54-6.31,6.34-10.29s.58-8.08.6-12.12.33-8.2,2.09-11.92c.12-.25.25-.5.38-.74,4.56-8.39,16-11.19,25.31-9.58a24.15,24.15,0,0,1,12.89,6.21c3.28,3.25,5.13,7.51,6.56,11.75s2.49,8.64,4.54,12.67S484.28,177.51,488.69,179.24Z"/><path class="cls-52" d="M468.81,198.33c-3.18,3.17-10.84,10.28-15.5,10.28s-6.38-6.11-7-9c2.84-1.3,5.18-2.37,5.4-2.46h0l11.25-.39a48.26,48.26,0,0,1,4.85,1.25C468.14,198.06,468.45,198.18,468.81,198.33Z"/><path class="cls-52" d="M452.06,205.71l9.72-10.82c-.07-1.67-.24-2.3-.53-6.44-.32-4.61-.64-8.93-.64-8.93l-12.84,5.6a30.78,30.78,0,0,1,2.69,10.42C451.17,203,452.06,205.71,452.06,205.71Z"/><path class="cls-53" d="M447.77,185.12a30.78,30.78,0,0,1,2.69,10.42c.41.15.82.3,1.2.42,1.53.47,6.24-4,9.59-7.51-.32-4.61-.64-8.93-.64-8.93Z"/><path class="cls-52" d="M433.58,170.12c.3,1.2.69,2.45,1.15,3.76,0,0-.36,6.54.37,8s5.44,10.4,10,9.68c3.83-.61,13-6.56,16.19-10a3.89,3.89,0,0,0,1.08-1.71c.36-2.6,1.51-14.07,1.62-15,.3-2.6.71-22.23-22.79-16a11.41,11.41,0,0,0-8.3,8.86A28.55,28.55,0,0,0,433.58,170.12Z"/><path class="cls-54" d="M442.42,183.39l8.25-1.67a4.09,4.09,0,0,1-3.71,4C443.24,186.22,442.42,183.39,442.42,183.39Z"/><path class="cls-53" d="M440.81,177.77a5.41,5.41,0,0,0,3.54-2.07,2.34,2.34,0,0,1-.14,1.72,7.49,7.49,0,0,1-1,1.45,3.12,3.12,0,0,1-1.75,1.3C441.3,179.43,441,178.52,440.81,177.77Z"/><path class="cls-55" d="M443.8,177.32a10.41,10.41,0,0,0-2.31,2c-.92-3.52-.5-6.56-.18-10.2,0-.27-.37-.33-.48-.12-1.78,3.38-1.25,8-.07,11.44a.51.51,0,0,0,.84.19,15,15,0,0,0,2.57-3C444.31,177.43,444,177.2,443.8,177.32Z"/><path class="cls-56" d="M434.73,173.88s-.36,6.54.37,8,5.44,10.4,10,9.68c3.83-.61,13-6.56,16.19-10-3.91,2.92-14.34,10.38-17.51,9.4-3.92-1.22-8.6-9.65-8.55-10.51s.12-6.42.12-6.42-.84-1.73-1.8-3.85C433.88,171.32,434.27,172.57,434.73,173.88Z"/><path class="cls-56" d="M461.33,179.5a9.09,9.09,0,0,0,6.18-3.7,8.3,8.3,0,0,0,.59-1c.8-1.57.86-6.92-1.37-8.09-1.56-.81-2.64.49-3.14,1.34h0a4.86,4.86,0,0,0-.32.65Z"/><path class="cls-52" d="M461.33,179.5a9.09,9.09,0,0,0,6.18-3.7c.09-.15.17-.3.24-.43.8-1.57.86-6.92-1.37-8.09a2.11,2.11,0,0,0-2.79.82h0a4.86,4.86,0,0,0-.32.65Z"/><path class="cls-53" d="M467.56,171a2.31,2.31,0,0,1-.05,1.3c-.54,1.81-2.28,3.24-3.95,4.57a4.47,4.47,0,0,0,.5-2.83,8.42,8.42,0,0,1-.14-1C463.86,171.69,466.83,168.48,467.56,171Z"/><path class="cls-57" d="M462.72,177.39l.09-.06c.06,0,.16-.09.27-.17a3.9,3.9,0,0,0,.82-.79,3.46,3.46,0,0,0,.65-1.45,3,3,0,0,0-.28-1.88c0-.08-.09-.15-.14-.23l0-.05h0l0-.05.06-.11.11-.2a8.25,8.25,0,0,1,.49-.76c.17-.23.35-.45.53-.65a5.09,5.09,0,0,1,.52-.52,1.28,1.28,0,0,1,.55-.27.85.85,0,0,1,.47.07.47.47,0,0,1,.22.18.23.23,0,0,1,0,.09.24.24,0,0,0,0-.1.46.46,0,0,0-.19-.23,1,1,0,0,0-.55-.16,1.5,1.5,0,0,0-.72.24,4.33,4.33,0,0,0-.65.5,5.52,5.52,0,0,0-.64.64,6.64,6.64,0,0,0-.59.78,2.39,2.39,0,0,1-.13.21l-.06.11-.08.16-.06.1.07.11.09.15a1.28,1.28,0,0,1,.11.2,3.13,3.13,0,0,1,.34,1.65,3.73,3.73,0,0,1-.41,1.38,3.82,3.82,0,0,1-.62.85l-.22.21Z"/><path class="cls-51" d="M447.78,166.22a3.6,3.6,0,0,0,1.85,1.47,1.54,1.54,0,0,1,1.12-.63c1.08,0,2,1.35,2.07,3.09s-.77,3.19-1.85,3.23-2-1.35-2.08-3.09a4.79,4.79,0,0,1,.18-1.5A5.85,5.85,0,0,1,447.78,166.22Z"/><path class="cls-54" d="M453.49,169.2a2.82,2.82,0,0,1-1.15,1,2.85,2.85,0,0,1-1.54.17,2.82,2.82,0,0,1,1.15-1A2.85,2.85,0,0,1,453.49,169.2Z"/><path class="cls-51" d="M434.53,168.36a2.53,2.53,0,0,0,1.26,1,1.15,1.15,0,0,1,.76-.37c.82,0,1.52,1,1.57,2.33s-.59,2.4-1.4,2.43-1.52-1-1.57-2.33a3.42,3.42,0,0,1,.21-1.35A4.22,4.22,0,0,1,434.53,168.36Z"/><path class="cls-54" d="M434.53,171a2,2,0,0,0,.83.59,2.1,2.1,0,0,0,1,.09,2,2,0,0,0-.83-.59A2.1,2.1,0,0,0,434.53,171Z"/><path class="cls-58" d="M431.27,165.5s2.89-4.15,4.63-2.6,1,1.74,1,1.74Z"/><path class="cls-58" d="M455.22,165.3s-5.8-6.23-8-3.87c-1.29,1.38-.33,2.25-.33,2.25Z"/><path class="cls-49" d="M446.23,199.25,449,195.3s5.38-2.58,15.79-1.91l3.78,4.33,2.92,1.34s-11.17,22.27-13.91,24.38c-2.13,1.63-5,2.66-8-.25s-5-15.54-5-15.54Z"/><path class="cls-59" d="M486,179.85a27.73,27.73,0,0,1-6.9-5.38c-4.24-4.46-7.32-9.87-11.15-14.68s-8.74-9.19-14.77-10.35c.58,1.61,1.17,3.22,1.75,4.84-4-2.51-8.06-5-12.1-7.5,0,1.41,0,2.82,0,4.24l-6.11-6.48c5.43-3.25,12.64-4.16,18.89-3.07a27,27,0,0,1,6.72,2.05,20.91,20.91,0,0,1,6.16,4.16c3.28,3.25,5.13,7.51,6.56,11.75s2.5,8.64,4.55,12.67A21.23,21.23,0,0,0,486,179.85Z"/><path class="cls-51" d="M470.58,162.69c-.12.38-.26.77-.42,1.16s-.35.9-.55,1.37c-.46,1.12-1,2.3-1.65,3.57,0,0-2.12-4.29-4.87-1.89,0,0-11.87-.89-14.78-7.09,0,0,.81,4.39,3,5.06-1.2-.16-20.66-3.13-21.38-14.44a7.74,7.74,0,0,1,.34-2.69c4.87-7.66,15.79-10.18,24.74-8.63a26.82,26.82,0,0,1,6.72,2,17.77,17.77,0,0,1,5.11,4.58C471.66,152.1,472.73,156.35,470.58,162.69Z"/><path class="cls-58" d="M478.41,177.51a45.35,45.35,0,0,0-21.35-21.1c1.18,1.58,2.35,3.17,3.53,4.76l-20-6.68c.46,1.09.91,2.19,1.38,3.29a22.94,22.94,0,0,1-12-8.7c-.1-.12-.19-.26-.28-.39.17-.33.37-.64.57-.95a17.3,17.3,0,0,1,5.85-5.56c5.43-3.25,12.64-4.16,18.89-3.07a26.82,26.82,0,0,1,6.72,2,20.83,20.83,0,0,1,6.17,4.16c3.28,3.25,5.13,7.51,6.56,11.75s2.49,8.64,4.54,12.67a21.16,21.16,0,0,0,6.42,7.75l0,0a15.09,15.09,0,0,0,3.19,1.73,56.79,56.79,0,0,1-17.5,10A24.92,24.92,0,0,0,478.41,177.51Z"/><path class="cls-60" d="M485.46,177.49a27.78,27.78,0,0,1-6.91-5.38c-4.24-4.46-7.31-9.87-11.14-14.68s-8.74-9.19-14.78-10.35c.58,1.61,1.17,3.22,1.75,4.84l-12.09-7.5c0,1.41,0,2.82,0,4.24q-3-3.24-6.12-6.48c5.43-3.25,12.64-4.16,18.89-3.07a26.82,26.82,0,0,1,6.72,2,20.83,20.83,0,0,1,6.17,4.16c3.28,3.25,5.13,7.51,6.56,11.75s2.49,8.64,4.54,12.67A21.16,21.16,0,0,0,485.46,177.49Z"/><path class="cls-61" d="M453.86,210.05c.34-5.47,2.42-10.76,8.24-12.46a11.81,11.81,0,0,1,10.55,2.31c1.08.88,4,3.82,4.38,11.56.82,17.29-11.47,54.1-13.23,59.29A36.44,36.44,0,0,1,445,264.2c1.18-3.14,2.6-7.22,3.95-12a107.89,107.89,0,0,0,4-19C454.13,220.79,453.28,219.2,453.86,210.05Z"/></g></g></g></svg>